<svg width="145" height="29" viewBox="0 0 145 29" fill="none" xmlns="http://www.w3.org/2000/svg">
<g clip-path="url(#clip0_625_5008)">
<path d="M7.55312 20.0838C5.5328 20.0838 3.85232 19.4081 2.51168 18.0582C1.17104 16.6908 0.5 14.9987 0.5 12.9817C0.5 10.9648 1.17104 9.28279 2.51168 7.93139C3.85232 6.56259 5.5328 5.87964 7.55312 5.87964C8.87648 5.87964 10.0645 6.20299 11.12 6.85114C12.1755 7.48189 12.9618 8.33594 13.4802 9.41619L11.5218 10.5501C11.1819 9.82944 10.6549 9.25379 9.9392 8.82169C9.24224 8.38959 8.44592 8.17354 7.55168 8.17354C6.21104 8.17354 5.08496 8.63319 4.172 9.55104C3.27776 10.4689 2.83136 11.6129 2.83136 12.9803C2.83136 14.3302 3.27776 15.4641 4.172 16.3834C5.08352 17.3013 6.2096 17.7609 7.55168 17.7609C8.44592 17.7609 9.25088 17.5536 9.96512 17.1403C10.6808 16.7082 11.2251 16.1326 11.601 15.4119L13.5853 16.5734C13.0136 17.6362 12.1914 18.4903 11.1186 19.1384C10.0472 19.7692 8.8592 20.0838 7.55312 20.0838Z" fill="#2A3349"/>
<path d="M72.9236 5.8797C74.7999 5.8797 76.4012 6.5728 77.7245 7.959C79.0479 9.3278 79.7088 11.0011 79.7088 12.9818C79.7088 14.9625 79.0479 16.6459 77.7245 18.0321C76.4012 19.4009 74.8013 20.0839 72.9236 20.0839C70.706 20.0839 69.0168 19.1921 67.8548 17.4101V19.733H65.522V0.829346H67.8548V8.5535C69.0168 6.77145 70.706 5.8797 72.9236 5.8797ZM72.6284 17.8161C73.969 17.8161 75.0951 17.3564 76.008 16.4386C76.9196 15.5019 77.376 14.3506 77.376 12.9818C77.376 11.613 76.921 10.4704 76.008 9.55255C75.0965 8.61585 73.969 8.14895 72.6284 8.14895C71.269 8.14895 70.1343 8.6173 69.2228 9.55255C68.3112 10.4704 67.8548 11.6144 67.8548 12.9818C67.8548 14.3491 68.3098 15.5019 69.2228 16.4386C70.1343 17.3564 71.269 17.8161 72.6284 17.8161Z" fill="#2A3349"/>
<path d="M92.0135 6.23059H94.3463V19.733H92.0135V17.7885C91.066 19.3183 89.6174 20.0839 87.669 20.0839C86.0951 20.0839 84.8351 19.5894 83.8876 18.5991C82.9401 17.5913 82.4663 16.2312 82.4663 14.5217V6.23059H84.7991V14.3868C84.7991 15.4845 85.0943 16.34 85.6847 16.9519C86.2751 17.5464 87.0887 17.8436 88.1255 17.8436C89.2876 17.8436 90.2265 17.484 90.9407 16.7634C91.6564 16.0253 92.0135 14.9001 92.0135 13.3878V6.23059Z" fill="#2A3349"/>
<path d="M109.271 0.829346H111.603V19.733H109.271V17.4101C108.109 19.1921 106.418 20.0839 104.202 20.0839C102.324 20.0839 100.724 19.3995 99.4008 18.0321C98.0775 16.6459 97.4165 14.9625 97.4165 12.9818C97.4165 11.0011 98.0775 9.3278 99.4008 7.959C100.724 6.5728 102.324 5.8797 104.202 5.8797C106.419 5.8797 108.109 6.77145 109.271 8.5535V0.829346ZM104.496 17.8161C105.855 17.8161 106.99 17.3564 107.901 16.4386C108.813 15.5019 109.269 14.3506 109.269 12.9818C109.269 11.613 108.813 10.4704 107.901 9.55255C106.99 8.61585 105.853 8.14895 104.496 8.14895C103.155 8.14895 102.029 8.6173 101.117 9.55255C100.206 10.4704 99.7493 11.6144 99.7493 12.9818C99.7493 14.3491 100.206 15.5019 101.117 16.4386C102.029 17.3564 103.155 17.8161 104.496 17.8161Z" fill="#2A3349"/>
<path d="M126.51 0.829346H128.843V19.733H126.51V17.4101C125.348 19.1921 123.657 20.0839 121.441 20.0839C119.563 20.0839 117.963 19.3995 116.64 18.0321C115.317 16.6459 114.656 14.9625 114.656 12.9818C114.656 11.0011 115.317 9.3278 116.64 7.959C117.963 6.5728 119.563 5.8797 121.441 5.8797C123.659 5.8797 125.348 6.77145 126.51 8.5535V0.829346ZM121.736 17.8161C123.096 17.8161 124.23 17.3564 125.142 16.4386C126.053 15.5019 126.51 14.3506 126.51 12.9818C126.51 11.613 126.053 10.4704 125.142 9.55255C124.23 8.61585 123.094 8.14895 121.736 8.14895C120.396 8.14895 119.27 8.6173 118.357 9.55255C117.445 10.4704 116.989 11.6144 116.989 12.9818C116.989 14.3491 117.444 15.5019 118.357 16.4386C119.268 17.3564 120.394 17.8161 121.736 17.8161Z" fill="#2A3349"/>
<path d="M142.006 6.23058H144.5L139.03 20.5696C138.458 22.0994 137.653 23.2608 136.616 24.054C135.597 24.8645 134.417 25.2241 133.075 25.1342V22.9462C134.72 23.0723 135.928 22.1545 136.695 20.1912L136.937 19.6779L131.091 6.22913H133.585L138.144 16.8156L142.006 6.23058Z" fill="#2A3349"/>
<path d="M51.682 15.1901C52.2162 16.295 52.9837 17.0563 53.9845 17.4768C55.0026 17.8915 56.1244 17.9335 57.3498 17.6029C58.5493 17.2288 58.8935 17.0838 59.8425 16.6053L60.7914 18.5179C60.7914 18.5179 59.1311 19.4154 57.8668 19.7562C55.8119 20.3101 53.9658 20.1187 52.3271 19.182C50.7028 18.2221 49.6257 16.7518 49.0986 14.7696C48.5759 12.8049 48.7703 10.9996 49.6847 9.35534C50.5991 7.71104 52.0564 6.61919 54.0609 6.07834C55.9602 5.56649 57.6868 5.82749 59.2391 6.86134C60.8044 7.87489 61.8383 9.32779 62.3437 11.2244C62.4316 11.555 62.4964 11.9015 62.5367 12.2626L51.682 15.1901ZM54.6282 8.21564C53.4201 8.54189 52.51 9.15959 51.9009 10.0702C51.2874 10.9634 51.0383 12.0088 51.1535 13.208L59.8065 10.8735C59.2881 9.69029 58.5537 8.88119 57.6061 8.44764C56.6572 8.01264 55.665 7.93579 54.6282 8.21564Z" fill="#2A3349"/>
<path d="M30.386 28.3547C30.0936 28.3547 29.8172 28.3402 29.5594 28.3155C27.3994 28.1111 25.3229 27.1106 23.8613 25.5692L25.5778 23.9191C27.3922 25.8331 31.4818 27.3977 35.3108 23.864L36.9149 25.6258C34.5519 27.808 32.1744 28.3547 30.386 28.3547Z" fill="#2A3349"/>
<path d="M22.3074 18.0365C25.0806 18.0365 27.3287 15.7728 27.3287 12.9803C27.3287 10.1879 25.0806 7.92419 22.3074 7.92419C19.5342 7.92419 17.2861 10.1879 17.2861 12.9803C17.2861 15.7728 19.5342 18.0365 22.3074 18.0365Z" fill="#FFBA19"/>
<path d="M43.7086 13.5211C44.0105 10.7518 42.0257 8.26044 39.2755 7.95649C36.5253 7.65253 34.0511 9.6511 33.7492 12.4204C33.4473 15.1897 35.4321 17.6811 38.1823 17.9851C40.9326 18.289 43.4067 16.2904 43.7086 13.5211Z" fill="#FFBA19"/>
<path d="M32.2809 11.1215H28.5225V13.5111H32.2809V11.1215Z" fill="#2A3349"/>
<path d="M27.2942 18.0451C25.9176 19.4139 24.2457 20.0969 22.2787 20.0969C20.3117 20.0969 18.6398 19.4125 17.2632 18.0451C15.9038 16.6763 15.2256 14.9929 15.2256 12.9948C15.2256 10.9967 15.9053 9.31325 17.2632 7.94445C18.6398 6.57565 20.3117 5.8927 22.2787 5.8927C24.2457 5.8927 25.9176 6.5771 27.2942 7.94445C28.6709 9.3118 29.3592 10.9967 29.3592 12.9948C29.3592 14.9929 28.6709 16.6763 27.2942 18.0451ZM22.2787 17.8015C23.6193 17.8015 24.7454 17.3419 25.6584 16.424C26.5699 15.5062 27.0264 14.3621 27.0264 12.9948C27.0264 11.626 26.5699 10.4834 25.6584 9.56555C24.7469 8.6477 23.6208 8.18805 22.2787 8.18805C20.9553 8.18805 19.8379 8.6477 18.9264 9.56555C18.0149 10.4834 17.5584 11.6274 17.5584 12.9948C17.5584 14.3636 18.0149 15.5062 18.9264 16.424C19.8379 17.3433 20.9553 17.8015 22.2787 17.8015Z" fill="#2A3349"/>
<path d="M43.481 0.842407H45.8138V19.7461H43.481V17.4232C42.319 19.2052 40.6298 20.097 38.4122 20.097C36.5345 20.097 34.9346 19.4126 33.6113 18.0452C32.2879 16.659 31.627 14.9756 31.627 12.9949C31.627 11.0142 32.2879 9.34086 33.6113 7.97206C34.9346 6.58586 36.5345 5.89276 38.4122 5.89276C40.6298 5.89276 42.319 6.78451 43.481 8.56656V0.842407ZM38.7074 17.8292C40.0668 17.8292 41.2015 17.3695 42.113 16.4517C43.0246 15.515 43.481 14.3637 43.481 12.9949C43.481 11.6261 43.0246 10.4835 42.113 9.56561C41.2015 8.62891 40.0653 8.16201 38.7074 8.16201C37.3668 8.16201 36.2407 8.63036 35.3278 9.56561C34.4162 10.4835 33.9598 11.6275 33.9598 12.9949C33.9598 14.3637 34.4162 15.515 35.3278 16.4517C36.2393 17.3695 37.3653 17.8292 38.7074 17.8292Z" fill="#2A3349"/>
<path d="M22.3075 14.9233C23.3732 14.9233 24.2371 14.0534 24.2371 12.9804C24.2371 11.9073 23.3732 11.0374 22.3075 11.0374C21.2418 11.0374 20.3779 11.9073 20.3779 12.9804C20.3779 14.0534 21.2418 14.9233 22.3075 14.9233Z" fill="#2A3349"/>
<path d="M38.7309 14.9132C39.7966 14.9132 40.6605 14.0433 40.6605 12.9702C40.6605 11.8971 39.7966 11.0272 38.7309 11.0272C37.6652 11.0272 36.8013 11.8971 36.8013 12.9702C36.8013 14.0433 37.6652 14.9132 38.7309 14.9132Z" fill="#2A3349"/>
</g>
<defs>
<clipPath id="clip0_625_5008">
<rect width="144" height="29" fill="white" transform="translate(0.5)"/>
</clipPath>
</defs>
</svg>
